<?xml version="1.0" encoding="UTF-8"?><svg id="Layer_1" xmlns="http://www.w3.org/2000/svg" width="2036" height="329" viewBox="0 0 2036 329"><defs><style>.cls-1{fill:none;stroke:#4d1f12;stroke-miterlimit:10;stroke-width:3.11px;}</style></defs><path class="cls-1" d="M1994,186.65c-.3-.37-.59-.82-.87-1.21-.28-.39-.55-.81-.82-1.24-.53-.85-1.02-1.85-1.49-2.74-.47-.92-.91-1.88-1.32-2.85-.42-.94-.81-1.91-1.18-2.87-1.5-3.85-2.69-7.62-3.89-10.74-1.2-3.11-2.39-5.58-3.89-6.81-.75-.58-1.57-.96-2.5-.98-.47,0-.96,.07-1.49,.22-.53,.13-1.09,.32-1.69,.59-2.39,1.05-4.19,2.35-5.68,3.57-1.49,1.21-2.69,2.4-3.89,3.4-1.2,1.01-2.39,1.82-3.89,2.36-.75,.26-1.57,.45-2.5,.59-.93,.11-1.98,.21-3.18,.21-1.2,.01-2.24-.01-3.18-.15-.93-.1-1.76-.3-2.5-.58-1.49-.53-2.69-1.42-3.89-2.44-2.39-1.99-4.78-4.62-9.57-5.31-2.39-.36-4.19,.08-5.68,1.09-1.49,1-2.69,2.55-3.89,4.22-1.2,1.68-2.39,3.48-3.89,5.02-1.49,1.53-3.29,2.82-5.68,3.23-2.39,.41-4.19-.36-5.68-1.92-1.49-1.55-2.69-3.86-3.89-6.32-2.39-4.89-4.78-10.55-9.57-11.47-2.39-.48-4.19,.66-5.68,2.83-1.49,2.16-2.69,5.31-3.89,8.65-1.2,3.33-2.39,6.84-3.89,9.69-1.49,2.83-3.29,5.03-5.68,5.51-2.39,.47-4.19-1.12-5.68-3.95-1.5-2.84-2.69-6.94-3.89-11.24-1.2-4.3-2.39-8.8-3.89-12.41-1.5-3.6-3.29-6.35-5.68-6.88-2.39-.53-4.19,1.54-5.68,5.17-1.5,3.63-2.69,8.75-3.89,14.11-1.2,5.36-2.39,10.93-3.89,15.37-1.5,4.43-3.29,7.76-5.68,8.34-2.39,.58-4.19-2.02-5.68-6.48-1.49-4.45-2.69-10.73-3.89-17.23-1.2-6.5-2.39-13.22-3.89-18.54-1.49-5.31-3.29-9.24-5.68-9.86-2.39-.62-4.19,2.55-5.68,7.89-1.49,5.33-2.69,12.81-3.89,20.51-1.2,7.7-2.39,15.64-3.89,21.88-1.49,6.22-3.29,10.79-5.68,11.43-2.39,.64-4.19-3.12-5.68-9.39-1.49-6.25-2.69-14.96-3.89-23.92-1.2-8.95-2.39-18.14-3.89-25.31-1.49-7.16-3.29-12.35-5.68-12.99-2.39-.64-4.19,3.75-5.68,10.95-1.5,7.19-2.69,17.15-3.89,27.35-1.2,10.2-2.39,20.64-3.89,28.75-1.5,8.09-3.29,13.89-5.68,14.52-2.39,.63-4.19-4.39-5.68-12.52-1.5-8.12-2.69-19.32-3.89-30.74-1.2-11.43-2.39-23.09-3.89-32.11-1.5-9.02-3.29-15.39-5.68-15.99-2.39-.59-4.19,5.04-5.68,14.08-1.5,9.03-2.69,21.41-3.89,34.02-1.2,12.61-2.39,25.44-3.89,35.32-1.5,9.88-3.29,16.84-5.68,17.38-2.39,.55-4.19-5.69-5.68-15.59-1.49-9.89-2.69-23.39-3.89-37.1-1.2-13.71-2.39-27.62-3.89-38.3-1.49-10.65-3.29-18.17-5.68-18.65-2.39-.49-4.19,6.32-5.68,17.02-1.49,10.68-2.69,25.22-3.89,39.93-1.2,14.71-2.39,29.61-3.89,41-1.49,11.38-3.29,19.28-5.68,19.77-4.78,.96-7.18-29.52-9.57-60.77-1.2-15.61-2.39-31.37-3.89-43.38-1.5-12-3.29-20.27-5.68-20.69-2.39-.41-4.19,7.31-5.68,19.37-1.5,12.04-2.69,28.29-3.89,44.69-1.2,16.39-2.39,32.92-3.89,45.47-1.5,12.56-3.29,21.15-5.68,21.45-4.78,.69-7.18-32.8-9.57-66.93-2.39-34.05-4.78-68.65-9.57-69.25-4.78-.57-7.18,34.14-9.57,69.25-2.39,35.08-4.78,70.65-9.57,71.05-4.78,.42-7.18-35.12-9.57-71.05-2.39-35.88-4.78-72.05-9.57-72.38-4.78-.3-7.18,36.03-9.57,72.38-1.2,18.18-2.39,36.34-3.89,49.94-1.5,13.63-3.29,22.6-5.68,22.43-2.39-.12-4.19-9.38-5.68-22.96-1.5-13.59-2.69-31.55-3.89-49.41-1.2-17.85-2.39-35.56-3.89-48.68-1.5-13.16-3.29-21.54-5.68-21.07-1.2,.22-2.24,2.64-3.18,6.63-.93,3.98-1.76,9.51-2.5,16.05-1.5,13.07-2.69,30.21-3.89,47.07-1.2,16.86-2.39,33.5-3.89,45.63-1.5,12.13-3.29,19.77-5.68,18.97-2.39-.84-4.19-9.39-5.68-21.54-1.49-12.13-2.69-27.77-3.89-43.06-1.2-15.29-2.39-30.24-3.89-41.04-1.49-10.85-3.29-17.38-5.68-16.37-2.39,1.01-4.19,8.82-5.68,19.55-1.5,10.76-2.69,24.51-3.89,37.87-1.2,13.36-2.39,26.33-3.89,35.59-1.5,9.29-3.29,14.79-5.68,13.77-2.39-1.03-4.19-7.84-5.68-17.07-1.5-9.25-2.69-20.95-3.89-32.29-1.2-11.35-2.39-22.34-3.89-30.16-1.5-7.85-3.29-12.4-5.68-11.51-2.39,.87-4.19,6.65-5.68,14.39-1.5,7.78-2.69,17.68-3.89,27.28-1.2,9.6-2.39,18.92-3.89,25.6-1.5,6.66-3.29,10.74-5.68,10.1-2.39-.64-4.19-5.37-5.68-12.06-1.49-6.69-2.69-15.22-3.89-23.64-2.39-16.84-4.78-32.86-9.57-32.24-9.57,1.12-9.57,63.54-19.14,63.89-4.78,.25-7.18-15.41-9.57-31.65-2.39-16.18-4.78-32.86-9.57-33.93-2.39-.5-4.19,3.31-5.68,9.67-1.5,6.33-2.69,15.16-3.89,24.26-2.39,18.13-4.78,37.76-9.57,39.91-1.2,.51-2.24-.31-3.18-2.2-.93-1.89-1.76-4.79-2.5-8.54-1.5-7.46-2.69-18.1-3.89-29.17-1.2-11.08-2.39-22.65-3.89-31.91-1.5-9.2-3.29-16.37-5.68-17.79-1.2-.7-2.24,.15-3.18,2.45-.93,2.28-1.76,5.95-2.5,10.62-1.5,9.3-2.69,22.65-3.89,36.63-1.2,13.97-2.39,28.58-3.89,40.34-1.5,11.72-3.29,20.7-5.68,22.49-1.2,.87-2.24-.33-3.18-3.22-.93-2.9-1.76-7.54-2.5-13.44-1.5-11.79-2.69-28.63-3.89-46.18-1.2-17.55-2.39-35.8-3.89-50.37-1.5-14.52-3.29-25.48-5.68-27.43-2.39-1.96-4.19,6.57-5.68,21.22-1.5,14.61-2.69,35.23-3.89,56.57-1.2,21.33-2.39,43.41-3.89,60.74-1.5,17.3-3.29,30.02-5.68,31.85-1.2,.88-2.24-1.21-3.18-5.82-.93-4.59-1.76-11.6-2.5-20.31-1.49-17.39-2.69-41.63-3.89-66.46-1.2-24.81-2.39-50.27-3.89-70-.75-9.86-1.57-18.29-2.5-24.46-.93-6.18-1.98-10.1-3.18-10.75-1.2-.67-2.24,2.04-3.18,7.42-.93,5.36-1.76,13.47-2.5,23.35-1.5,19.78-2.69,46.88-3.89,74.44-1.2,27.55-2.39,55.5-3.89,76.94-.75,10.73-1.57,19.79-2.5,26.28-.93,6.5-1.98,10.45-3.18,10.91-2.39,.9-4.19-12.94-5.68-34.39-1.49-21.44-2.69-50.49-3.89-79.74-1.2-29.25-2.39-58.75-3.89-81.04-1.49-22.31-3.29-37.45-5.68-37.78-4.78-.66-7.17,59.03-9.57,118.82-2.39,59.77-4.78,119.71-9.57,119.16-1.2-.12-2.24-4.03-3.18-10.64-.93-6.65-1.76-16.04-2.5-27.22-1.49-22.4-2.69-51.97-3.89-81.3-1.2-29.34-2.39-58.42-3.89-79.86-1.49-21.43-3.29-35.21-5.68-34.12-1.2,.54-2.24,4.56-3.18,11.09-.93,6.54-1.76,15.69-2.5,26.38-1.49,21.4-2.69,49.21-3.89,76.51-1.2,27.28-2.39,54.08-3.89,73.44-1.49,19.35-3.29,31.33-5.68,29.52-2.39-1.71-4.19-15.85-5.68-35.11-1.49-19.3-2.69-43.98-3.89-67.85-1.2-23.9-2.39-47.01-3.89-63.38-1.49-16.42-3.29-25.97-5.68-23.82-2.39,2.27-4.19,14.59-5.68,30.87-1.5,16.32-2.69,36.75-3.89,56.33-1.2,19.58-2.39,38.3-3.89,51.33-1.5,13.07-3.29,20.28-5.68,18.05-2.39-2.24-4.19-12.33-5.68-25.26-1.5-12.92-2.69-28.91-3.89-44.11-1.2-15.21-2.39-29.62-3.89-39.51-.75-4.93-1.57-8.82-2.5-11.15-.93-2.37-1.98-3.14-3.18-2.26-1.2,.9-2.24,3.32-3.18,6.73-.93,3.41-1.76,7.73-2.5,12.66-1.49,9.87-2.69,22-3.89,33.53-1.2,11.55-2.39,22.47-3.89,30.07-.75,3.81-1.57,6.78-2.5,8.61-.47,.91-.96,1.54-1.49,1.86-.53,.35-1.09,.39-1.69,.09-4.78-2.7-7.17-22.47-9.57-40.63-1.2-9.1-2.39-17.87-3.89-24.12-1.49-6.28-3.29-10-5.68-9.45-4.78,1.13-7.17,17.57-9.57,33.58-2.39,16-4.78,31.41-9.57,30.9-4.78-.45-7.18-15.77-9.57-30.9-1.2-7.56-2.39-15.1-3.89-20.73-1.5-5.63-3.29-9.32-5.68-9.37-4.78-.02-7.18,14.89-9.57,30.11-2.39,15.15-4.78,30.65-9.57,31.12-4.78,.59-7.18-14.94-9.57-31.12-1.2-8.09-2.39-16.29-3.89-22.63-1.49-6.35-3.29-10.86-5.68-11.29-2.39-.47-4.19,3.44-5.68,9.82-1.49,6.37-2.69,15.12-3.89,24.1-1.2,8.98-2.39,18.15-3.89,25.3-1.49,7.15-3.29,12.32-5.68,12.94-2.39,.62-4.19-3.77-5.68-10.96-1.49-7.18-2.69-17.09-3.89-27.28-1.2-10.18-2.39-20.62-3.89-28.76-1.49-8.12-3.29-13.97-5.68-14.66-2.39-.7-4.19,4.29-5.68,12.45-1.5,8.15-2.69,19.43-3.89,30.96-1.2,11.54-2.39,23.33-3.89,32.49-1.5,9.14-3.29,15.69-5.68,16.39-2.39,.7-4.19-4.97-5.68-14.16-1.49-9.2-2.69-21.84-3.89-34.72-1.2-12.88-2.39-25.99-3.89-36.11-1.5-10.09-3.29-17.28-5.68-17.87-2.39-.55-4.19,5.85-5.68,15.99-1.49,10.13-2.69,23.96-3.89,37.99-2.39,28.04-4.78,57.06-9.57,58.05-2.39,.4-4.19-6.6-5.68-17.5-1.49-10.88-2.69-25.67-3.89-40.55-2.39-29.74-4.78-60.17-9.57-60.7-4.79-.53-7.18,29.97-9.57,60.7-1.2,15.37-2.39,30.78-3.89,42.38-1.5,11.58-3.29,19.45-5.68,19.44-2.39,.02-4.19-7.7-5.68-19.29-1.49-11.61-2.69-27.09-3.89-42.53-2.39-30.87-4.78-61.77-9.57-61.22-1.2,.17-2.24,2.23-3.18,5.67-.93,3.48-1.76,8.36-2.5,14.11-1.49,11.5-2.69,26.61-3.89,41.43-1.2,14.84-2.39,29.43-3.89,39.98-1.49,10.61-3.29,17.04-5.68,16.05-1.2-.53-2.24-2.72-3.18-6.09-.93-3.4-1.76-7.96-2.5-13.22-1.5-10.52-2.69-23.89-3.89-36.72-1.2-12.85-2.39-25.18-3.89-33.8-1.5-8.61-3.29-13.36-5.68-11.84-1.2,.72-2.24,2.9-3.18,5.83-.93,2.96-1.76,6.75-2.5,11.02-1.5,8.55-2.69,18.98-3.89,28.79-1.2,9.82-2.39,19.03-3.89,25.21-1.5,6.22-3.29,9.32-5.68,7.71-2.39-1.59-4.19-6.58-5.68-12.72-1.49-6.16-2.69-13.43-3.89-20.2-1.2-6.77-2.39-13.05-3.89-17.22-.75-2.07-1.57-3.67-2.5-4.57-.47-.45-.96-.73-1.49-.83-.53-.12-1.09-.07-1.69,.18-.6,.25-1.16,.66-1.69,1.19-.53,.52-1.02,1.14-1.49,1.87-.93,1.46-1.76,3.35-2.5,5.4-1.5,4.12-2.69,9.18-3.89,13.97-1.2,4.82-2.39,9.36-3.89,12.64-.75,1.64-1.57,2.95-2.5,3.79-.93,.86-1.98,1.35-3.18,1.23-4.79-.34-7.18-8.76-9.57-17.66-1.2-4.44-2.39-8.97-3.89-12.52-1.5-3.59-3.29-6.26-5.68-6.7-2.39-.4-4.19,1.64-5.68,5.23-1.5,3.59-2.69,8.69-3.89,13.98-1.2,5.29-2.39,10.79-3.89,15.21-1.49,4.4-3.29,7.74-5.68,8.37-2.39,.72-4.19-1.77-5.68-6.22-1.5-4.44-2.69-10.74-3.89-17.36-1.2-6.61-2.39-13.53-3.89-19.08-.75-2.78-1.57-5.19-2.5-7.06-.93-1.88-1.98-3.19-3.18-3.63-2.39-.9-4.19,2.25-5.68,7.82-1.5,5.57-2.69,13.58-3.89,21.96-1.2,8.37-2.39,17.12-3.89,24.17-1.5,7.04-3.29,12.38-5.68,13.5-2.39,1.14-4.19-2.84-5.68-9.94-1.5-7.06-2.69-17.16-3.89-27.73-1.2-10.56-2.39-21.56-3.89-30.38-1.5-8.81-3.29-15.53-5.68-16.83-2.39-1.3-4.19,3.78-5.68,12.68-1.5,8.88-2.69,21.43-3.89,34.53-1.2,13.09-2.39,26.7-3.89,37.52-1.5,10.79-3.29,18.89-5.68,20.27-1.2,.67-2.24-.53-3.18-3.29-.93-2.76-1.76-7.07-2.5-12.5-1.5-10.85-2.69-26.16-3.89-42-1.2-15.84-2.39-32.22-3.89-45.13-1.5-12.89-3.29-22.42-5.68-23.85-2.39-1.44-4.19,6.28-5.68,19.26-1.5,12.95-2.69,31.07-3.89,49.73-1.2,18.65-2.39,37.82-3.89,52.82-1.5,14.97-3.29,25.86-5.68,27.26-2.39,1.42-4.19-7.79-5.68-22.86-1.5-15.05-2.69-35.89-3.89-57.22-1.2-21.33-2.39-43.16-3.89-60.11-1.5-16.95-3.29-29.07-5.68-30.29-1.2-.61-2.24,1.69-3.18,6.29-.93,4.6-1.76,11.52-2.51,20.01-1.5,16.98-2.69,40.32-3.89,64.1-1.2,23.78-2.39,47.99-3.89,66.62-.75,9.32-1.57,17.24-2.51,22.99-.93,5.75-1.98,9.33-3.18,9.82-2.39,1.03-4.19-10.75-5.68-29.43-1.5-18.68-2.69-44.17-3.89-70.01-2.39-51.59-4.78-105.04-9.57-106.86-2.39-.89-4.19,12.06-5.68,32.11-1.5,20.06-2.69,47.26-3.89,74.75-1.2,27.49-2.39,55.23-3.89,76.34-.75,10.55-1.57,19.44-2.5,25.79-.93,6.34-1.98,10.17-3.18,10.44-2.39,.59-4.19-13.12-5.68-34.24-1.5-21.1-2.69-49.64-3.89-78.33-1.2-28.69-2.39-57.56-3.89-79.44-1.5-21.82-3.29-36.96-5.68-36.63-2.39,.34-4.19,15.82-5.68,37.84-1.5,22.02-2.69,50.61-3.89,78.22-1.2,27.61-2.39,54.37-3.89,72.8-1.5,18.6-3.29,28.65-5.68,24.74-1.2-1.9-2.24-6.61-3.18-13.03-.93-6.43-1.76-14.6-2.51-23.72-.75-9.13-1.42-19.18-2.06-29.5-.58-9.99-1.21-20.64-1.83-31.3-.6-10.31-1.2-20.32-1.83-29.38-.32-4.53-.64-8.83-.99-12.81-.34-4-.7-7.7-1.07-11.02-.37-3.31-.77-6.28-1.18-8.81-.42-2.52-.86-4.59-1.32-6.24-.47-1.63-.96-2.72-1.49-3.38-.53-.64-1.09-.69-1.69-.29-.6,.44-1.16,1.41-1.69,2.72-.53,1.34-1.02,3.15-1.49,5.25-.93,4.24-1.76,9.89-2.51,16.5-1.5,13.2-2.69,30.42-3.89,47.46-1.2,17.03-2.39,33.86-3.89,46.23-1.5,12.39-3.29,20.28-5.68,19.73-2.39-.55-4.19-9.15-5.68-21.5-1.5-12.36-2.69-28.52-3.89-44.47-1.2-15.95-2.39-31.7-3.89-43.26-1.5-11.57-3.29-18.93-5.68-18.44-2.39,.5-4.19,8.53-5.68,20.09-1.5,11.56-2.69,26.68-3.89,41.62-1.2,14.93-2.39,29.68-3.89,40.52-1.5,10.85-3.29,17.75-5.68,17.24-2.39-.5-4.19-8.05-5.68-18.85-1.5-10.81-2.69-24.95-3.89-38.91-1.2-13.97-2.39-27.77-3.89-37.92-1.5-10.16-3.29-16.63-5.68-16.18s-4.19,7.5-5.68,17.63c-1.49,10.14-2.69,23.38-3.89,36.46-1.2,13.08-2.39,25.98-3.89,35.48-1.49,9.51-3.29,15.59-5.68,15.18-2.39-.41-4.19-7-5.68-16.49-1.5-9.49-2.69-21.91-3.89-34.18-1.2-12.27-2.39-24.38-3.89-33.28-1.5-8.92-3.29-14.56-5.68-14.2-2.39,.37-4.19,6.53-5.68,15.43-1.5,8.9-2.69,20.55-3.89,32.06-1.2,11.51-2.39,22.89-3.89,31.26-1.49,8.38-3.29,13.72-5.68,13.36-4.79-.8-7.18-22.99-9.57-44.61-1.2-10.82-2.39-21.52-3.89-29.39-1.5-7.88-3.29-12.93-5.68-12.6-2.39,.33-4.19,5.79-5.68,13.65-1.5,7.87-2.69,18.15-3.89,28.34-2.39,20.4-4.79,40.24-9.57,39.63-4.79-.62-7.18-20.4-9.57-39.63-2.39-19.28-4.79-38-9.57-37.39-4.79,.62-7.18,19.28-9.57,37.39-2.39,18.16-4.79,35.75-9.57,35.21-4.79-.56-7.18-18.14-9.57-35.21-2.39-17.12-4.79-33.74-9.57-33.18-4.79,.56-7.18,17.12-9.57,33.18-2.39,16.11-4.79,31.72-9.57,31.16-4.79-.57-7.18-16.13-9.57-31.16-2.39-15.09-4.79-29.65-9.57-29.08-4.79,.58-7.18,15.09-9.57,29.08-2.39,14.04-4.79,27.56-9.57,26.98-4.79-.58-7.18-14.04-9.57-26.98-2.39-13-4.79-25.42-9.57-24.79-4.79,.64-7.18,13-9.57,24.79-2.39,11.84-4.79,23.15-9.57,22.45-4.79-.69-7.18-11.89-9.57-22.45-2.39-10.63-4.79-20.62-9.57-19.93-2.39,.31-4.19,3.02-5.69,6.76-1.5,3.74-2.69,8.52-3.89,13.17-1.2,4.65-2.39,9.16-3.89,12.39-1.5,3.24-3.29,5.17-5.69,4.81-2.39-.35-4.19-2.73-5.68-5.94-1.5-3.22-2.69-7.31-3.89-11.27-1.2-3.96-2.39-7.79-3.89-10.47-1.5-2.7-3.29-4.25-5.68-3.86-2.39,.39-4.19,2.42-5.69,5.1-1.5,2.68-2.69,6.03-3.89,9.23-1.2,3.2-2.4,6.26-3.89,8.38-1.5,2.13-3.29,3.3-5.69,2.91-2.39-.36-4.19-2.13-5.69-4.37-1.5-2.23-2.69-4.82-3.89-6.92-1.2-2.09-2.4-3.75-3.89-4.05-.37-.09-.77-.05-1.18,.04-.42,.1-.86,.35-1.32,.66-.23,.15-.47,.33-.72,.52-.25,.23-.5,.49-.77,.76-.53,.53-1.09,1.22-1.69,2.07"/></svg>