<?xml version="1.0" encoding="UTF-8"?><svg id="Layer_1" xmlns="http://www.w3.org/2000/svg" width="1280.5" height="168" viewBox="0 0 1280.5 168"><defs><style>.cls-1{fill:none;stroke:#e3e2af;stroke-miterlimit:10;stroke-width:6px;}</style></defs><path class="cls-1" d="M10,86.5c1.56-.69,2.72-1.01,3.7-1,.97,0,1.75,.41,2.53,1,.78,.58,1.56,1.37,2.53,2.19,.97,.81,2.14,1.71,3.7,2.16,3.11,1.03,4.67-1.27,6.23-4.35,.78-1.53,1.56-3.2,2.53-4.63,.97-1.41,2.14-2.65,3.7-3,1.56-.35,2.72,.38,3.7,1.82,.97,1.43,1.75,3.57,2.53,5.81,.78,2.24,1.56,4.61,2.53,6.52,.97,1.9,2.14,3.39,3.7,3.65,3.11,.59,4.67-4.52,6.23-10.17,1.56-5.58,3.11-11.62,6.23-12.11,3.11-.41,4.67,5.66,6.23,12.11,1.56,6.43,3.11,13.17,6.23,13.48,6.23,.74,6.23-27.39,12.45-27.89,6.23-.3,6.23,29.14,12.46,28.72,3.11-.22,4.67-7.46,6.23-14.31,.78-3.43,1.56-6.81,2.53-9.22,.97-2.42,2.14-3.87,3.7-3.62,3.11,.6,4.67,7.02,6.23,12.84,1.56,5.88,3.11,11.13,6.23,10.44,3.11-.68,4.67-5.86,6.23-10.44,.78-2.31,1.56-4.51,2.53-6.04,.97-1.52,2.14-2.41,3.7-2.17,3.11,.5,4.67,4.45,6.23,8.21,.78,1.87,1.56,3.71,2.53,5.04,.97,1.35,2.14,2.14,3.7,2.14,3.11-.04,4.67-3.52,6.23-7.18,1.56-3.64,3.11-7.45,6.23-7.86,1.56-.19,2.72,.63,3.7,2.09,.97,1.46,1.75,3.57,2.53,5.76,1.56,4.38,3.11,9.26,6.23,9.99,1.56,.34,2.72-.69,3.7-2.55,.97-1.87,1.75-4.58,2.53-7.44,1.56-5.69,3.11-12.15,6.23-13.17,1.56-.46,2.72,.86,3.7,3.32,.97,2.46,1.75,6.06,2.53,9.85,.78,3.79,1.56,7.78,2.53,11.01,.97,3.2,2.14,5.77,3.7,6.35,1.56,.59,2.72-1.2,3.7-4.48,.97-3.26,1.75-7.94,2.53-12.88,.78-4.93,1.56-10.11,2.53-14.27,.97-4.16,2.14-7.32,3.7-8,1.56-.67,2.72,1.69,3.7,5.89,.97,4.18,1.75,10.16,2.53,16.39,.78,6.22,1.56,12.7,2.53,17.85,.97,5.14,2.14,9.01,3.7,9.68,1.56,.66,2.72-2.36,3.7-7.55,.97-5.17,1.75-12.45,2.53-19.98,.78-7.53,1.56-15.3,2.53-21.39,.97-6.09,2.14-10.55,3.7-11.18,1.56-.64,2.72,3.13,3.7,9.25,.97,6.12,1.75,14.62,2.53,23.33,.78,8.7,1.56,17.64,2.53,24.55,.97,6.89,2.14,11.87,3.7,12.33,1.56,.47,2.72-3.83,3.7-10.79,.97-6.94,1.75-16.44,2.53-26.1,.78-9.66,1.56-19.47,2.53-27,.97-7.53,2.14-12.77,3.7-13.1,3.11-.72,4.67,19.45,6.23,40.1,1.56,20.59,3.11,41.71,6.23,42.08,3.11,.37,4.67-20.77,6.23-42.08,.78-10.65,1.56-21.34,2.53-29.39,.97-8.07,2.14-13.43,3.7-13.43,1.56,.08,2.72,5.49,3.7,13.58,.97,8.05,1.75,18.7,2.53,29.24,1.56,21.11,3.11,41.62,6.23,40.47,1.56-.55,2.72-6.07,3.7-13.65,.97-7.62,1.75-17.36,2.53-26.82,.78-9.44,1.56-18.63,2.53-25.07,.97-6.46,2.14-10.21,3.7-9.25,1.56,1.01,2.72,5.93,3.7,12.34,.97,6.44,1.75,14.41,2.53,21.98,.78,7.57,1.56,14.74,2.53,19.66,.97,4.94,2.14,7.54,3.7,6.48,1.56-1.05,2.72-5.01,3.7-9.82,.97-4.86,1.75-10.77,2.53-16.32,.78-5.54,1.56-10.75,2.53-14.27,.97-3.56,2.14-5.36,3.7-4.63,1.56,.73,2.72,3.5,3.7,6.98,.97,3.51,1.75,7.81,2.53,11.92,.78,4.11,1.56,8.03,2.53,10.81,.97,2.76,2.14,4.41,3.7,4.12,6.23-.98,6.23-29.1,12.45-29.24,3.11-.09,4.67,6.96,6.23,14.31,.78,3.66,1.56,7.38,2.53,10.24,.97,2.88,2.14,4.9,3.7,5.14,1.56,.25,2.72-1.51,3.7-4.38,.97-2.88,1.75-6.88,2.53-11,1.56-8.22,3.11-17.07,6.23-18.01,3.11-.93,4.67,8.07,6.23,18.01,.78,4.95,1.56,10.09,2.53,14.16,.97,4.05,2.14,7.13,3.7,7.66,1.56,.53,2.72-1.85,3.7-5.96,.97-4.09,1.75-9.88,2.53-15.86,.78-5.99,1.56-12.18,2.53-17.06,.97-4.88,2.14-8.48,3.7-9.03,1.56-.54,2.72,2.41,3.7,7.32,.97,4.9,1.75,11.74,2.53,18.78,.78,7.03,1.56,14.25,2.53,19.87,.97,5.6,2.14,9.69,3.7,10.11,1.56,.41,2.72-3.07,3.7-8.71,.97-5.62,1.75-13.38,2.53-21.27,1.56-15.74,3.11-32.22,6.23-32.84,3.11-.62,4.67,15.93,6.22,32.84,1.56,16.89,3.11,34.15,6.22,34.44,6.22,.54,6.22-69.3,12.45-69.26,6.23,.19,6.23,69.69,12.45,68.87,3.11-.32,4.67-17.43,6.23-34.06,.78-8.33,1.56-16.58,2.53-22.67,.97-6.1,2.14-9.97,3.7-9.72,3.11,.55,4.67,16.76,6.23,32.39,1.56,15.69,3.11,30.83,6.23,30.22,3.11-.62,4.67-15.66,6.23-30.22,1.56-14.59,3.11-28.71,6.23-28.23,3.11,.47,4.67,14.46,6.22,28.23,1.56,13.78,3.11,27.24,6.22,27.09,6.22-.25,6.22-53.88,12.45-54.36,1.56-.11,2.72,3.2,3.7,8.3,.97,5.1,1.75,12,2.53,18.97,.78,6.97,1.56,14.02,2.53,19.41,.97,5.38,2.14,9.18,3.7,9.45,3.11,.66,4.67-13.74,6.23-28.86,.78-7.56,1.56-15.27,2.53-21.35,.49-3.02,1.02-5.68,1.63-7.66,.61-1.97,1.29-3.28,2.07-3.71,.78-.4,1.46,.27,2.07,1.77,.61,1.51,1.14,3.95,1.63,6.98,.97,6.08,1.75,14.82,2.53,23.97,.78,9.16,1.56,18.74,2.53,26.54,.97,7.75,2.14,13.82,3.7,15.29,.78,.71,1.46,.05,2.07-1.79,.61-1.85,1.14-4.89,1.63-8.82,.97-7.86,1.75-19.22,2.53-31.22,.78-12,1.56-24.62,2.53-34.82,.97-10.16,2.14-18.04,3.7-19.69,1.56-1.62,2.72,4.14,3.7,14.44,.97,10.28,1.75,24.89,2.53,40.07,.78,15.18,1.56,30.91,2.53,43.31,.97,12.36,2.14,21.47,3.7,22.63,1.56,1.15,2.72-6.48,3.7-18.94,.97-12.41,1.75-29.59,2.53-47,.78-17.43,1.56-35.12,2.53-48.66,.97-13.51,2.14-22.83,3.7-23.15,3.11-.63,4.67,35.71,6.23,71.81,1.56,36.06,3.11,72.33,6.23,70.17,1.56-1.04,2.72-10.97,3.7-24.18,.97-13.31,1.75-30.05,2.53-46,.78-15.95,1.56-31.07,2.53-41.23,.49-5.07,1.02-8.86,1.63-11.02,.3-1.08,.63-1.76,.97-1.98,.34-.18,.71,.1,1.1,.83,.78,1.47,1.46,4.41,2.07,8.24,.61,3.81,1.14,8.43,1.63,13.42,.97,9.99,1.75,21.46,2.53,31.74,.78,10.31,1.56,19.37,2.53,24.88,.97,5.63,2.14,7.33,3.7,4.76,.78-1.29,1.46-3.19,2.07-5.46,.61-2.23,1.14-4.82,1.63-7.51,.97-5.39,1.75-11.33,2.53-16.67,.78-5.35,1.56-10.06,2.53-13.15,.97-3.11,2.14-4.52,3.7-3.96,1.56,.57,2.72,3.08,3.7,6.26,.97,3.18,1.75,7.11,2.53,10.85,.78,3.74,1.56,7.29,2.53,9.77,.97,2.47,2.14,3.83,3.7,3.44,3.11-.85,4.67-7.31,6.23-13.21,.78-2.97,1.56-5.81,2.53-7.87,.97-2.06,2.14-3.25,3.7-3.1,6.23,.75,6.23,21.33,12.45,21.46,3.11,.11,4.67-5.05,6.23-10.49,1.56-5.4,3.11-11.16,6.23-11.55,3.11-.51,4.67,5.29,6.23,11.55,1.56,6.22,3.11,12.95,6.23,13.55,3.11,.6,4.67-6.2,6.23-13.55,.78-3.66,1.56-7.43,2.53-10.38,.97-2.95,2.14-5.09,3.7-5.34,1.56-.25,2.72,1.55,3.7,4.51,.97,2.95,1.75,7.05,2.53,11.21,.78,4.16,1.56,8.4,2.53,11.68,.97,3.27,2.14,5.61,3.7,5.75,6.23,.81,6.23-35.35,12.45-35.8,3.11-.1,4.67,9.11,6.23,18.38,1.56,9.28,3.11,18.57,6.23,18.58,3.11,0,4.67-9.37,6.23-18.58,1.56-9.23,3.11-18.38,6.23-18.29,3.11,.09,4.67,9.29,6.23,18.29,1.56,9.03,3.11,17.93,6.23,17.78,6.23-.27,6.23-35.4,12.46-35.18,6.23,.01,6.23,34.69,12.46,35.1,3.11,.23,4.67-8.59,6.23-17.7,1.56-9.13,3.11-18.45,6.23-19.03,3.11-.52,4.67,8.95,6.23,19.03,1.56,10.06,3.11,20.63,6.23,21.49,1.56,.37,2.72-2.01,3.7-6.06,.97-4.03,1.75-9.63,2.53-15.43,1.56-11.55,3.11-23.98,6.23-25.07,1.56-.56,2.72,2.2,3.7,6.86,.97,4.68,1.75,11.31,2.53,18.21,.78,6.92,1.56,14.09,2.53,19.89,.97,5.8,2.14,10.18,3.7,11.22,1.56,.97,2.73-2.15,3.7-8.02,.97-5.81,1.75-14.22,2.53-23.09,.78-8.86,1.56-18.19,2.53-25.76,.97-7.55,2.14-13.52,3.7-14.89,1.56-1.34,2.72,2.74,3.7,10.4,.97,7.62,1.75,18.65,2.53,30.24,.78,11.59,1.56,23.75,2.53,33.56,.97,9.78,2.14,17.3,3.7,18.85,1.56,1.54,2.73-4.02,3.7-13.92,.97-9.86,1.75-23.89,2.53-38.49,.78-14.58,1.56-29.76,2.53-41.73,.97-11.94,2.14-20.82,3.7-22.22,.78-.63,1.46,.82,2.07,3.96,.61,3.14,1.14,8,1.63,14.01,.97,12.02,1.75,28.8,2.53,45.98,.78,17.18,1.56,34.76,2.53,48.38,.97,13.63,2.14,23.25,3.7,24.11,3.11,1.73,4.67-34.87,6.23-72.49,.78-18.78,1.56-37.77,2.53-52.18,.97-14.4,2.14-24.23,3.7-24.46,3.11-.48,4.67,38.14,6.23,76.64,1.56,38.51,3.11,76.95,6.23,76.43,1.56-.27,2.73-10.05,3.7-24.4,.97-14.36,1.75-33.28,2.53-52.03,.78-18.75,1.56-37.32,2.53-51,.97-13.67,2.14-22.42,3.7-21.71,1.56,.74,2.73,10.26,3.7,23.94,.97,13.66,1.75,31.37,2.53,48.77,.78,17.4,1.56,34.44,2.53,46.8,.97,12.36,2.14,19.92,3.7,18.84,1.56-1.14,2.72-10.05,3.7-22.37,.97-12.32,1.75-28.03,2.53-43.28,.78-15.25,1.56-30.03,2.53-40.52,.97-10.5,2.14-16.6,3.7-15.23,1.56,1.35,2.73,9.24,3.7,19.67,.97,10.45,1.75,23.54,2.53,36.08,.78,12.55,1.56,24.57,2.53,32.93,.97,8.39,2.14,13.04,3.7,11.58,1.56-1.45,2.73-7.89,3.7-16.19,.97-8.32,1.75-18.59,2.53-28.32,.78-9.73,1.56-18.96,2.53-25.3,.97-6.36,2.14-9.73,3.7-8.4,1.56,1.23,2.73,6.26,3.7,12.49,.97,6.28,1.75,13.97,2.53,21.22,.78,7.26,1.56,14.11,2.53,18.77,.97,4.7,2.14,7.2,3.7,6.23,1.56-.87,2.73-4.6,3.7-9.2,.97-4.64,1.75-10.37,2.53-15.8,.78-5.43,1.56-10.62,2.53-14.21,.97-3.59,2.14-5.59,3.7-5.07,3.11,1.12,4.67,10.51,6.23,19.27,1.56,8.8,3.11,17.06,6.23,16.57,3.11-.44,4.67-8.64,6.23-16.57,.78-3.97,1.56-7.9,2.53-10.8,.97-2.91,2.14-4.76,3.7-4.74,3.11,.11,4.67,7.77,6.23,15.55,1.56,7.74,3.11,15.62,6.23,15.84,3.11,.31,4.67-7.58,6.23-15.84,.78-4.13,1.56-8.33,2.53-11.59,.97-3.27,2.14-5.62,3.7-5.88,3.11-.65,4.67,8.07,6.23,17.47,.78,4.69,1.56,9.5,2.53,13.28,.97,3.78,2.14,6.56,3.7,6.96,1.56,.44,2.73-1.81,3.7-5.62,.97-3.8,1.75-9.13,2.53-14.62,.78-5.5,1.56-11.14,2.53-15.6,.97-4.45,2.14-7.73,3.7-8.21,1.56-.48,2.73,2.19,3.7,6.67,.97,4.47,1.75,10.71,2.53,17.14,.78,6.43,1.56,13.03,2.53,18.2,.97,5.16,2.14,8.92,3.7,9.4,1.56,.48,2.73-2.66,3.7-7.85,.97-5.18,1.75-12.37,2.53-19.75,.78-7.38,1.56-14.92,2.53-20.77,.97-5.84,2.14-10.01,3.7-10.44,3.11-.95,4.67,14.79,6.23,31.21,.78,8.2,1.56,16.52,2.53,22.92,.97,6.38,2.14,10.89,3.7,11.17,3.12,.66,4.67-16.5,6.23-34.08,.78-8.79,1.56-17.66,2.53-24.39,.97-6.72,2.14-11.37,3.7-11.51,1.56-.14,2.73,4.26,3.7,11,.97,6.75,1.75,15.81,2.53,24.9,.78,9.08,1.56,18.21,2.53,25.07,.97,6.85,2.14,11.42,3.7,11.44,3.12-.02,4.67-18.34,6.23-36.51,1.56-18.17,3.12-36.24,6.23-35.9,1.56,.23,2.73,4.97,3.7,11.77,.97,6.77,1.75,15.57,2.53,24.13,.78,8.57,1.56,16.88,2.53,22.77,.97,5.88,2.14,9.25,3.7,8.23,1.56-1.03,2.72-5.68,3.7-11.5,.97-5.85,1.75-12.92,2.53-19.5,.78-6.57,1.56-12.61,2.53-16.52,.97-3.93,2.14-5.51,3.7-4,1.56,1.57,2.73,5.13,3.7,8.92,.97,3.82,1.75,8,2.53,11.6,.78,3.6,1.56,6.63,2.53,8.26,.97,1.64,2.14,1.79,3.7,.48,1.56-1.33,2.73-3.13,3.7-4.68,.97-1.59,1.75-2.99,2.53-4.05,.78-1.07,1.56-1.75,2.53-1.96,.97-.21,2.14,.11,3.7,.65,3.12,1.11,4.67,1.29,6.23,1.32h31.17"/></svg>