<?xml version="1.0" encoding="UTF-8"?><svg id="Layer_1" xmlns="http://www.w3.org/2000/svg" width="301" height="1981" viewBox="0 0 301 1981"><defs><style>.cls-1{fill:none;stroke:#4d1f12;stroke-miterlimit:10;stroke-width:3.11px;}</style></defs><path class="cls-1" d="M172.15,33.5c-.37,.3-.83,.59-1.21,.87-.39,.28-.81,.55-1.24,.82-.85,.53-1.85,1.02-2.74,1.49-.92,.47-1.88,.91-2.85,1.32-.94,.42-1.91,.81-2.87,1.18-3.85,1.5-7.62,2.69-10.74,3.89-3.11,1.2-5.58,2.39-6.81,3.89-.58,.75-.96,1.57-.98,2.5,0,.47,.07,.96,.22,1.49,.13,.53,.32,1.09,.59,1.69,1.05,2.39,2.35,4.19,3.57,5.68,1.21,1.49,2.4,2.69,3.4,3.89,1.01,1.2,1.82,2.39,2.36,3.89,.26,.75,.45,1.57,.59,2.5,.11,.93,.21,1.98,.21,3.18,.01,1.2-.01,2.24-.15,3.18-.1,.93-.3,1.76-.58,2.5-.53,1.49-1.42,2.69-2.44,3.89-1.99,2.39-4.62,4.78-5.31,9.57-.36,2.39,.08,4.19,1.09,5.68,1,1.49,2.55,2.69,4.22,3.89,1.68,1.2,3.48,2.39,5.02,3.89,1.53,1.49,2.82,3.29,3.23,5.68,.41,2.39-.36,4.19-1.92,5.68-1.55,1.49-3.86,2.69-6.32,3.89-4.89,2.39-10.55,4.78-11.47,9.57-.48,2.39,.66,4.19,2.83,5.68,2.16,1.49,5.31,2.69,8.65,3.89,3.33,1.2,6.84,2.39,9.69,3.89,2.83,1.49,5.03,3.29,5.51,5.68,.47,2.39-1.12,4.19-3.95,5.68-2.84,1.5-6.94,2.69-11.24,3.89-4.3,1.2-8.8,2.39-12.41,3.89-3.6,1.5-6.35,3.29-6.88,5.68-.53,2.39,1.54,4.19,5.17,5.68,3.63,1.5,8.75,2.69,14.11,3.89,5.36,1.2,10.93,2.39,15.37,3.89,4.43,1.49,7.76,3.29,8.34,5.68,.58,2.39-2.02,4.19-6.48,5.68-4.45,1.49-10.73,2.69-17.23,3.89-6.5,1.2-13.22,2.39-18.54,3.89-5.31,1.49-9.24,3.29-9.86,5.68-.62,2.39,2.55,4.19,7.89,5.68,5.33,1.49,12.81,2.69,20.51,3.89,7.7,1.2,15.64,2.39,21.88,3.89,6.22,1.49,10.79,3.29,11.43,5.68,.64,2.39-3.12,4.19-9.39,5.68-6.25,1.49-14.96,2.69-23.92,3.89-8.95,1.2-18.14,2.39-25.31,3.89-7.16,1.49-12.35,3.29-12.99,5.68-.64,2.39,3.75,4.19,10.95,5.68,7.19,1.5,17.15,2.69,27.35,3.89,10.2,1.2,20.64,2.39,28.75,3.89,8.09,1.49,13.89,3.29,14.52,5.68,.63,2.39-4.39,4.19-12.52,5.68-8.12,1.5-19.32,2.69-30.74,3.89-11.43,1.2-23.09,2.39-32.11,3.89-9.02,1.5-15.39,3.29-15.99,5.68-.59,2.39,5.04,4.19,14.08,5.68,9.03,1.49,21.41,2.69,34.02,3.89,12.61,1.2,25.44,2.39,35.32,3.89,9.88,1.49,16.84,3.29,17.38,5.68,.55,2.39-5.69,4.19-15.59,5.68-9.89,1.49-23.39,2.69-37.1,3.89-13.71,1.2-27.62,2.39-38.3,3.89-10.65,1.49-18.17,3.29-18.65,5.68-.49,2.39,6.32,4.19,17.02,5.68,10.68,1.49,25.22,2.69,39.93,3.89,14.71,1.2,29.61,2.39,41,3.89,11.38,1.49,19.28,3.29,19.77,5.68,.96,4.78-29.52,7.18-60.77,9.57-15.61,1.2-31.37,2.39-43.38,3.89-12,1.49-20.27,3.29-20.69,5.68-.41,2.39,7.31,4.19,19.37,5.68,12.04,1.5,28.29,2.69,44.69,3.89,16.39,1.2,32.92,2.39,45.47,3.89,12.56,1.5,21.14,3.29,21.45,5.68,.69,4.78-32.8,7.18-66.93,9.57-34.05,2.39-68.65,4.78-69.25,9.57-.57,4.78,34.14,7.18,69.25,9.57,35.08,2.39,70.65,4.78,71.05,9.57,.42,4.78-35.12,7.18-71.05,9.57-35.87,2.39-72.05,4.78-72.38,9.57-.3,4.78,36.03,7.18,72.38,9.57,18.18,1.2,36.34,2.39,49.94,3.89,13.63,1.49,22.6,3.29,22.43,5.68-.12,2.39-9.38,4.19-22.96,5.68-13.59,1.5-31.55,2.69-49.41,3.89-17.85,1.2-35.56,2.39-48.68,3.89-13.16,1.5-21.54,3.29-21.07,5.68,.22,1.2,2.64,2.24,6.63,3.18,3.98,.93,9.51,1.76,16.05,2.5,13.07,1.49,30.21,2.69,47.07,3.89,16.86,1.2,33.5,2.39,45.63,3.89,12.13,1.5,19.77,3.29,18.97,5.68-.84,2.39-9.39,4.19-21.54,5.68-12.13,1.49-27.77,2.69-43.06,3.89-15.29,1.2-30.24,2.39-41.04,3.89-10.85,1.49-17.38,3.29-16.37,5.68,1.01,2.39,8.82,4.19,19.55,5.68,10.76,1.49,24.51,2.69,37.87,3.89,13.36,1.2,26.33,2.39,35.59,3.89,9.29,1.49,14.79,3.29,13.77,5.68-1.03,2.39-7.84,4.19-17.07,5.68-9.25,1.5-20.95,2.69-32.29,3.89-11.35,1.2-22.34,2.39-30.16,3.89-7.85,1.5-12.4,3.29-11.51,5.68,.87,2.39,6.65,4.19,14.39,5.68,7.78,1.5,17.68,2.69,27.28,3.89,9.6,1.2,18.92,2.39,25.6,3.89,6.66,1.5,10.74,3.29,10.1,5.68-.64,2.39-5.37,4.19-12.06,5.68-6.69,1.49-15.22,2.69-23.64,3.89-16.84,2.39-32.86,4.78-32.24,9.57,1.12,9.57,63.54,9.57,63.89,19.14,.25,4.78-15.41,7.18-31.65,9.57-16.18,2.39-32.86,4.78-33.93,9.57-.5,2.39,3.31,4.19,9.67,5.68,6.33,1.5,15.16,2.69,24.26,3.89,18.13,2.39,37.76,4.78,39.91,9.57,.51,1.2-.31,2.24-2.2,3.18-1.89,.93-4.79,1.76-8.54,2.5-7.46,1.5-18.1,2.69-29.17,3.89-11.08,1.2-22.65,2.39-31.91,3.89-9.2,1.5-16.37,3.29-17.79,5.68-.7,1.2,.15,2.24,2.45,3.18,2.28,.93,5.95,1.76,10.62,2.5,9.3,1.5,22.65,2.69,36.63,3.89,13.97,1.2,28.58,2.39,40.34,3.89,11.72,1.5,20.7,3.29,22.49,5.68,.87,1.2-.33,2.24-3.22,3.18-2.9,.93-7.54,1.76-13.44,2.5-11.79,1.5-28.63,2.69-46.18,3.89-17.55,1.2-35.8,2.39-50.37,3.89-14.52,1.5-25.48,3.29-27.43,5.68-1.96,2.39,6.57,4.19,21.22,5.68,14.61,1.5,35.23,2.69,56.57,3.89,21.33,1.2,43.41,2.39,60.74,3.89,17.3,1.5,30.02,3.29,31.85,5.68,.88,1.2-1.21,2.24-5.82,3.18-4.59,.93-11.6,1.76-20.31,2.5-17.39,1.49-41.63,2.69-66.46,3.89-24.81,1.2-50.27,2.39-70,3.89-9.86,.75-18.29,1.57-24.46,2.5-6.18,.93-10.1,1.98-10.75,3.18-.67,1.2,2.04,2.24,7.42,3.18,5.36,.93,13.47,1.76,23.35,2.5,19.78,1.5,46.88,2.69,74.44,3.89,27.55,1.2,55.5,2.39,76.94,3.89,10.73,.75,19.79,1.57,26.28,2.5,6.5,.93,10.45,1.98,10.91,3.18,.9,2.39-12.94,4.19-34.39,5.68-21.44,1.49-50.49,2.69-79.74,3.89-29.25,1.2-58.75,2.39-81.04,3.89-22.31,1.49-37.45,3.29-37.78,5.68-.66,4.78,59.03,7.17,118.82,9.57,59.77,2.39,119.71,4.78,119.16,9.57-.12,1.2-4.03,2.24-10.64,3.18-6.65,.93-16.04,1.76-27.22,2.5-22.4,1.49-51.97,2.69-81.31,3.89-29.34,1.2-58.42,2.39-79.86,3.89-21.43,1.49-35.21,3.29-34.12,5.68,.54,1.2,4.56,2.24,11.09,3.18,6.54,.93,15.69,1.76,26.38,2.5,21.4,1.49,49.21,2.69,76.51,3.89,27.28,1.2,54.08,2.39,73.44,3.89,19.35,1.49,31.33,3.29,29.52,5.68-1.71,2.39-15.85,4.19-35.11,5.68-19.3,1.49-43.98,2.69-67.85,3.89-23.9,1.2-47.01,2.39-63.38,3.89-16.42,1.49-25.97,3.29-23.82,5.68,2.27,2.39,14.59,4.19,30.87,5.68,16.32,1.5,36.75,2.69,56.33,3.89,19.58,1.2,38.3,2.39,51.33,3.89,13.07,1.5,20.28,3.29,18.05,5.68-2.24,2.39-12.33,4.19-25.26,5.68-12.92,1.5-28.91,2.69-44.11,3.89-15.21,1.2-29.62,2.39-39.51,3.89-4.93,.75-8.82,1.57-11.15,2.5-2.37,.93-3.14,1.98-2.26,3.18,.9,1.2,3.32,2.24,6.73,3.18,3.41,.93,7.72,1.76,12.66,2.5,9.87,1.49,22,2.69,33.53,3.89,11.55,1.2,22.47,2.39,30.07,3.89,3.81,.75,6.78,1.57,8.61,2.5,.91,.47,1.54,.96,1.86,1.49,.35,.53,.39,1.09,.09,1.69-2.7,4.78-22.47,7.17-40.63,9.57-9.1,1.2-17.87,2.39-24.12,3.89-6.28,1.49-10,3.29-9.45,5.68,1.13,4.78,17.57,7.17,33.58,9.57,16,2.39,31.41,4.78,30.9,9.57-.45,4.78-15.77,7.18-30.9,9.57-7.56,1.2-15.1,2.39-20.73,3.89-5.63,1.5-9.32,3.29-9.37,5.68-.03,4.78,14.89,7.18,30.11,9.57,15.15,2.39,30.65,4.78,31.12,9.57,.59,4.78-14.94,7.18-31.12,9.57-8.09,1.2-16.29,2.39-22.63,3.89-6.35,1.49-10.86,3.29-11.29,5.68-.47,2.39,3.44,4.19,9.82,5.68,6.37,1.49,15.12,2.69,24.1,3.89,8.98,1.2,18.15,2.39,25.3,3.89,7.15,1.49,12.32,3.29,12.94,5.68,.62,2.39-3.77,4.19-10.96,5.68-7.18,1.49-17.09,2.69-27.28,3.89-10.18,1.2-20.62,2.39-28.76,3.89-8.12,1.49-13.97,3.29-14.66,5.68-.7,2.39,4.29,4.19,12.45,5.68,8.15,1.5,19.43,2.69,30.96,3.89,11.54,1.2,23.33,2.39,32.49,3.89,9.14,1.5,15.69,3.29,16.39,5.68,.7,2.39-4.97,4.19-14.16,5.68-9.2,1.5-21.84,2.69-34.72,3.89-12.88,1.2-25.99,2.39-36.11,3.89-10.09,1.49-17.28,3.29-17.87,5.68-.55,2.39,5.85,4.19,15.99,5.68,10.13,1.49,23.96,2.69,37.99,3.89,28.04,2.39,57.06,4.78,58.05,9.57,.4,2.39-6.6,4.19-17.5,5.68-10.88,1.5-25.67,2.69-40.55,3.89-29.74,2.39-60.17,4.78-60.7,9.57-.53,4.79,29.97,7.18,60.7,9.57,15.37,1.2,30.78,2.39,42.38,3.89,11.58,1.5,19.45,3.29,19.44,5.68,.02,2.39-7.7,4.19-19.29,5.68-11.61,1.5-27.09,2.69-42.53,3.89-30.87,2.39-61.77,4.78-61.22,9.57,.17,1.2,2.23,2.24,5.67,3.18,3.48,.93,8.36,1.76,14.11,2.5,11.5,1.49,26.61,2.69,41.43,3.89,14.84,1.2,29.43,2.39,39.98,3.89,10.61,1.5,17.04,3.29,16.05,5.68-.53,1.2-2.72,2.24-6.09,3.18-3.4,.93-7.96,1.76-13.22,2.5-10.52,1.5-23.89,2.69-36.72,3.89-12.85,1.2-25.18,2.39-33.8,3.89-8.61,1.5-13.36,3.29-11.84,5.68,.72,1.2,2.9,2.24,5.83,3.18,2.96,.93,6.75,1.76,11.02,2.5,8.55,1.5,18.98,2.69,28.79,3.89,9.82,1.2,19.03,2.39,25.21,3.89,6.22,1.5,9.32,3.29,7.71,5.68-1.59,2.39-6.58,4.19-12.72,5.68-6.16,1.49-13.43,2.69-20.2,3.89-6.77,1.2-13.05,2.39-17.22,3.89-2.07,.75-3.67,1.57-4.57,2.5-.45,.47-.73,.96-.83,1.49-.12,.53-.07,1.09,.18,1.69,.25,.6,.66,1.16,1.19,1.69,.52,.53,1.14,1.02,1.87,1.49,1.46,.93,3.35,1.76,5.4,2.5,4.12,1.5,9.18,2.69,13.97,3.89,4.82,1.2,9.36,2.39,12.64,3.89,1.64,.75,2.95,1.57,3.79,2.5,.86,.93,1.35,1.98,1.22,3.18-.34,4.78-8.76,7.18-17.66,9.57-4.44,1.2-8.97,2.39-12.52,3.89-3.59,1.5-6.26,3.29-6.7,5.68-.4,2.39,1.64,4.19,5.23,5.68,3.59,1.5,8.69,2.69,13.98,3.89,5.29,1.2,10.79,2.39,15.21,3.89,4.4,1.5,7.74,3.29,8.37,5.68,.72,2.39-1.77,4.19-6.21,5.68-4.44,1.5-10.75,2.69-17.36,3.89-6.61,1.2-13.53,2.39-19.08,3.89-2.78,.75-5.19,1.57-7.06,2.5-1.88,.93-3.19,1.98-3.63,3.18-.9,2.39,2.25,4.19,7.82,5.68,5.57,1.5,13.58,2.69,21.96,3.89,8.37,1.2,17.12,2.39,24.17,3.89,7.04,1.5,12.37,3.29,13.5,5.68,1.14,2.39-2.84,4.19-9.94,5.68-7.06,1.5-17.16,2.69-27.73,3.89-10.56,1.2-21.56,2.39-30.38,3.89-8.81,1.5-15.53,3.29-16.83,5.68-1.3,2.39,3.78,4.19,12.68,5.68,8.88,1.5,21.43,2.69,34.53,3.89,13.09,1.2,26.7,2.39,37.52,3.89,10.79,1.5,18.89,3.29,20.27,5.68,.67,1.2-.53,2.24-3.29,3.18-2.76,.93-7.07,1.76-12.5,2.5-10.85,1.5-26.16,2.69-42,3.89-15.84,1.2-32.22,2.39-45.13,3.89-12.89,1.5-22.42,3.29-23.85,5.68-1.44,2.39,6.28,4.19,19.26,5.68,12.95,1.5,31.07,2.69,49.73,3.89,18.65,1.2,37.82,2.39,52.82,3.89,14.97,1.5,25.86,3.29,27.26,5.68,1.42,2.39-7.79,4.19-22.86,5.68-15.05,1.5-35.88,2.69-57.22,3.89-21.33,1.2-43.16,2.39-60.11,3.89-16.95,1.5-29.07,3.29-30.29,5.68-.61,1.2,1.69,2.24,6.29,3.18,4.6,.93,11.52,1.76,20.01,2.5,16.98,1.5,40.32,2.69,64.1,3.89,23.78,1.2,47.99,2.39,66.62,3.89,9.32,.75,17.24,1.57,22.99,2.51,5.75,.93,9.33,1.98,9.82,3.18,1.03,2.39-10.75,4.19-29.43,5.68-18.68,1.5-44.17,2.69-70.01,3.89-51.59,2.39-105.04,4.78-106.86,9.57-.89,2.39,12.06,4.19,32.11,5.68,20.06,1.5,47.26,2.69,74.75,3.89,27.49,1.2,55.23,2.39,76.34,3.89,10.55,.75,19.44,1.57,25.79,2.5,6.35,.93,10.17,1.98,10.44,3.18,.59,2.39-13.12,4.19-34.24,5.68-21.1,1.5-49.64,2.69-78.33,3.89-28.69,1.2-57.56,2.39-79.43,3.89-21.82,1.5-36.96,3.29-36.63,5.68,.34,2.39,15.82,4.19,37.84,5.68,22.02,1.5,50.61,2.69,78.22,3.89,27.61,1.2,54.37,2.39,72.8,3.89,18.6,1.5,28.65,3.29,24.74,5.68-1.9,1.2-6.61,2.24-13.03,3.18-6.43,.93-14.6,1.76-23.72,2.51-9.13,.75-19.18,1.42-29.5,2.06-9.99,.58-20.64,1.21-31.3,1.83-10.31,.6-20.32,1.2-29.38,1.83-4.53,.32-8.83,.65-12.81,.99-4,.34-7.7,.7-11.02,1.07-3.31,.37-6.28,.77-8.81,1.18-2.52,.42-4.59,.86-6.24,1.32-1.63,.47-2.72,.96-3.38,1.49-.64,.53-.69,1.09-.29,1.69,.44,.6,1.41,1.16,2.72,1.69,1.34,.53,3.15,1.02,5.25,1.49,4.24,.93,9.89,1.76,16.5,2.51,13.2,1.5,30.42,2.69,47.46,3.89,17.03,1.2,33.86,2.39,46.23,3.89,12.39,1.5,20.28,3.29,19.73,5.68-.55,2.39-9.15,4.19-21.5,5.68-12.36,1.5-28.52,2.69-44.47,3.89-15.95,1.2-31.7,2.39-43.26,3.89-11.57,1.5-18.93,3.29-18.44,5.68,.5,2.39,8.53,4.19,20.09,5.68,11.56,1.5,26.68,2.69,41.62,3.89,14.93,1.2,29.68,2.39,40.52,3.89,10.85,1.5,17.75,3.29,17.24,5.68-.5,2.39-8.05,4.19-18.85,5.68-10.81,1.5-24.95,2.69-38.91,3.89-13.97,1.2-27.77,2.39-37.92,3.89-10.16,1.5-16.63,3.29-16.18,5.68s7.5,4.19,17.63,5.68c10.14,1.49,23.38,2.69,36.46,3.89,13.08,1.2,25.98,2.39,35.48,3.89,9.51,1.5,15.59,3.29,15.18,5.68-.41,2.39-7,4.19-16.49,5.68-9.49,1.5-21.91,2.69-34.18,3.89-12.27,1.2-24.38,2.39-33.28,3.89-8.92,1.5-14.56,3.29-14.2,5.68,.37,2.39,6.53,4.19,15.42,5.68,8.9,1.49,20.55,2.69,32.06,3.89,11.51,1.2,22.89,2.39,31.26,3.89,8.38,1.5,13.72,3.29,13.36,5.68-.8,4.79-22.99,7.18-44.61,9.57-10.82,1.2-21.52,2.39-29.39,3.89-7.88,1.5-12.93,3.29-12.6,5.68,.33,2.39,5.79,4.19,13.65,5.68,7.87,1.5,18.15,2.69,28.34,3.89,20.4,2.39,40.24,4.79,39.63,9.57-.62,4.79-20.4,7.18-39.63,9.57-19.28,2.39-38,4.79-37.39,9.57s19.28,7.18,37.39,9.57c18.16,2.39,35.75,4.79,35.21,9.57-.56,4.79-18.14,7.18-35.21,9.57-17.12,2.39-33.74,4.79-33.18,9.57,.56,4.79,17.13,7.18,33.18,9.57,16.11,2.39,31.72,4.79,31.16,9.57-.57,4.79-16.13,7.18-31.16,9.57-15.09,2.39-29.65,4.79-29.08,9.57,.58,4.79,15.09,7.18,29.08,9.57,14.04,2.39,27.56,4.79,26.98,9.57-.58,4.79-14.04,7.18-26.98,9.57-13,2.39-25.42,4.79-24.79,9.57,.64,4.79,13,7.18,24.79,9.57,11.84,2.39,23.15,4.79,22.45,9.57-.69,4.79-11.89,7.18-22.45,9.57-10.63,2.39-20.62,4.79-19.93,9.57,.31,2.39,3.02,4.19,6.76,5.69,3.74,1.5,8.52,2.69,13.17,3.89,4.65,1.2,9.16,2.39,12.39,3.89,3.24,1.5,5.17,3.29,4.81,5.69-.35,2.39-2.73,4.19-5.94,5.68-3.22,1.5-7.31,2.69-11.27,3.89-3.96,1.2-7.79,2.39-10.47,3.89-2.7,1.5-4.25,3.29-3.86,5.68,.39,2.4,2.42,4.19,5.1,5.69,2.68,1.5,6.03,2.69,9.23,3.89,3.2,1.2,6.26,2.39,8.38,3.89,2.13,1.5,3.3,3.29,2.91,5.69-.36,2.4-2.13,4.19-4.37,5.69-2.23,1.5-4.82,2.69-6.92,3.89-2.09,1.2-3.75,2.4-4.05,3.89-.09,.37-.05,.77,.04,1.18,.1,.42,.35,.86,.66,1.32,.15,.23,.33,.47,.52,.72,.23,.25,.49,.5,.76,.77,.53,.53,1.22,1.09,2.07,1.69"/></svg>